<svg xmlns="http://www.w3.org/2000/svg" viewBox="0 0 128 128">
  <path fill="#F7A80D" d="M38.089 77.466l-11.4 4.896 10.559 4.514 12.241-4.514-11.4-4.896zm-17.138 6.12l-.382 22.034 16.679 7.345V90.089l-16.297-6.503zm34.276 0l-15.073 5.739V110.9l15.073-6.121V83.586zm17.979-68.551L61.6 19.12l11.4 4.896 12.241-4.514-11.035-4.467zm-15.914 6.503v22.034l14.231 4.132.459-20.046-14.69-6.12zm31.828 1.224L75.054 28.5v21.652l13.466-5.739 3.06-22.034z"/>
  <path fill="#F7A80D" d="M13.229 43.133L.663 39.142v12.627l12.566 5.739V43.133zm102.8 5.359l-.459-20.046-11.4-3.67v18.441l11.859 5.275zm-22.034 14.69l-22.034-5.275V36.138l22.034-5.275v32.319zm-1.311 1.147l-20.723 6.121v20.723l20.723 9.426V64.329zM33.916 77.79l-20.723-7.345V90.089l20.723 9.426V77.79z"/>
  <path fill="#F7A80D" d="M26.953 54.547L0 44.741v10.917l26.953 11.859V54.547zm0-10.918v-11.4L0 20.692v10.918l26.953 12.019zm101.489-12.019L101.489 20.692v11.4l26.953-11.859v-10.918z"/>
</svg>
