<svg xmlns="http://www.w3.org/2000/svg" viewBox="0 0 128 128">
  <path fill-rule="evenodd" clip-rule="evenodd" fill="#2396ED" d="M124.8 52.1c-4.3-2.5-10-2.8-14.8-1.4-.6-5.2-4-9.7-8-12.9l-1.6-1.3-1.4 1.6c-2.7 3.1-3.5 8.3-3.1 12.3.3 2.9 1.2 5.9 3 8.3-1.4.8-2.9 1.9-4.3 2.4-2.8 1-5.9 2-8.9 2H79V64H42.3l-.2 1.5c-.5 6.4.3 12.6 3 18.5l1.1 2.2.8.8c5.4 5.4 14.4 9.2 22.8 9.2 16.6 0 30.5-7.4 38.9-22.9 4.5 0 14.3 0 19.3-10.2 0-.1 0-.1.1-.2l.4-1.1-1.3-.8zM86.5 11.8c0-4.7-3.8-8.5-8.5-8.5s-8.5 3.8-8.5 8.5 3.8 8.5 8.5 8.5c4.7-.1 8.5-3.9 8.5-8.5z"/>
  <path fill-rule="evenodd" clip-rule="evenodd" fill="#2396ED" d="M29.8 62.9h8.5v8.5h-8.5zM40.8 62.9h8.5v8.5h-8.5zM51.7 62.9h8.5v8.5h-8.5zM62.7 62.9h8.5v8.5h-8.5zM29.8 51.9h8.5v8.5h-8.5zM40.8 51.9h8.5v8.5h-8.5zM51.7 51.9h8.5v8.5h-8.5zM40.8 41h8.5v8.5h-8.5zM51.7 41h8.5v8.5h-8.5z"/>
</svg>
