<svg xmlns="http://www.w3.org/2000/svg" viewBox="0 0 128 128">
  <path fill-rule="evenodd" clip-rule="evenodd" fill="#439934" d="M88.038 42.812c1.605 4.643 2.761 9.383 3.141 14.296.472 6.095.256 12.147-1.029 18.142-.035.165-.109.32-.164.48-.403.001-.814-.049-1.208.012-3.329.523-6.655 1.065-9.981 1.604-3.438.557-6.881 1.092-10.313 1.687-1.216.21-2.721-.041-3.212 1.641-.014.046-.154.054-.235.08l.166-10.051-.169-24.252 1.602-.275c2.62-.429 5.24-.864 7.862-1.281 3.129-.497 6.261-.98 9.392-1.465 1.381-.215 2.764-.412 4.148-.618z"/>
  <path fill-rule="evenodd" clip-rule="evenodd" fill="#45A538" d="M61.729 110.054c-1.69-1.453-3.439-2.842-5.059-4.37-8.717-8.222-15.093-17.899-18.233-29.566-.865-3.211-1.442-6.474-1.627-9.792-.13-2.322-.318-4.665-.154-6.975.437-6.144 1.325-12.229 3.127-18.147l.099-.138c.175.233.427.439.516.702 1.759 5.18 3.505 10.364 5.242 15.551 5.458 16.3 10.909 32.604 16.376 48.9.107.318.384.579.583.866l-.87 2.969z"/>
  <path fill-rule="evenodd" clip-rule="evenodd" fill="#46A037" d="M88.038 42.812c-1.384.206-2.768.403-4.149.618-3.131.485-6.263.968-9.392 1.465-2.622.417-5.242.852-7.862 1.281l-1.602.275-.012-1.045c-.053-.859-.144-1.717-.154-2.576-.069-5.478-.112-10.956-.18-16.434-.042-3.429-.105-6.857-.175-10.285-.043-2.13-.089-4.261-.185-6.388-.052-1.143-.236-2.28-.311-3.423-.042-.657.016-1.319.029-1.979.817 1.583 1.616 3.178 2.456 4.749 1.327 2.484 3.441 4.314 5.344 6.311 7.523 7.892 12.864 17.068 16.193 27.433z"/>
  <path fill-rule="evenodd" clip-rule="evenodd" fill="#409433" d="M65.036 80.753c.081-.026.222-.034.235-.08.491-1.682 1.996-1.431 3.212-1.641 3.432-.594 6.875-1.13 10.313-1.687 3.326-.539 6.652-1.081 9.981-1.604.394-.062.805-.011 1.208-.012-.622 2.22-1.112 4.488-1.901 6.647-.896 2.449-1.98 4.839-3.131 7.182a49.142 49.142 0 01-6.353 9.763c-1.919 2.308-4.058 4.441-6.202 6.548-1.185 1.165-2.582 2.114-3.882 3.161l-.337-.23-1.214-1.038-1.256-2.753a41.402 41.402 0 01-1.394-9.838l.023-.561.171-2.426c.057-.828.133-1.655.168-2.485.129-2.982.241-5.964.359-8.946z"/>
  <path fill-rule="evenodd" clip-rule="evenodd" fill="#4FAA41" d="M65.036 80.753c-.118 2.982-.23 5.964-.357 8.947-.035.83-.111 1.657-.168 2.485l-.765.289c-1.699-5.002-3.399-9.951-5.062-14.913-2.975-8.848-5.988-17.682-8.862-26.563-1.203-3.72-2.496-7.417-3.636-11.157-.382-1.25-.476-2.594-.737-3.897-.148-.742-.377-1.49-.396-2.238-.02-.747.118-1.503.174-2.255.134.09.195.128.216.143 1.445 1.022 2.976 1.921 4.298 3.08a91.051 91.051 0 014.28 3.91c.631.619 1.149 1.352 1.683 2.066.278.371.513.775.766 1.164l.166 10.051-.169 24.252z"/>
  <path fill-rule="evenodd" clip-rule="evenodd" fill="#4AA73C" d="M43.155 32.227c.21.445.368.916.522 1.384.893 2.7 2.205 5.18 3.282 7.774 5.092 12.223 11.981 23.383 19.577 34.187.318.453.564.945.836 1.422.212.374.414.754.642 1.171-.226 3.039-.396 6.073-.602 9.105-.124 1.822-.226 3.653-.431 5.46-.369 3.322-.847 6.628-1.384 9.92-.104.637-.325 1.254-.507 1.933-3.948-4.921-7.894-9.838-11.83-14.768-2.905-3.638-5.809-7.279-8.71-10.919-1.152-1.446-2.305-2.893-3.451-4.343-.217-.273-.415-.559-.636-.859.226-.323.456-.637.67-.965 1.165-1.78 2.431-3.5 3.479-5.325 4.71-8.207 8.848-16.729 12.168-25.635.35-.95.514-1.974.736-2.971l-.168-.322z"/>
  <path fill-rule="evenodd" clip-rule="evenodd" fill="#57AE47" d="M65.202 70.702l-.67-1.171c-.272-.477-.518-.969-.836-1.422-7.596-10.804-14.485-21.964-19.577-34.187-1.076-2.594-2.388-5.074-3.282-7.774a26.025 26.025 0 00-.522-1.384c-.717-.004-1.49-.023-2.254.12-.336.063-.494.51-.672.814-1.761 2.981-3.118 6.2-4.554 9.382-1.789 3.967-3.657 7.899-5.35 11.897-1.003 2.368-1.743 4.868-2.667 7.284-.425 1.114-.886 2.209-1.384 3.44.273.153.435.245.597.337 1.945 1.112 3.848 2.3 5.843 3.325 2.726 1.4 5.471 2.764 8.271 4.015 3.421 1.527 6.842 3.054 10.308 4.459 1.189.48 2.52.609 3.713 1.048.249.091.498.182.746.273l-.268 5.945z"/>
  <path fill-rule="evenodd" clip-rule="evenodd" fill="#60B24F" d="M65.021 45.404c-.248-.134-.494-.272-.746-.408-3.577-1.931-7.145-3.877-10.731-5.796-4.442-2.38-8.888-4.759-13.339-7.125-.396-.211-.836-.343-1.271-.514.172-.166.294-.282.412-.399 2.471-2.453 4.939-4.909 7.416-7.355.566-.56 1.168-1.083 1.771-1.604.416-.361.885-.669 1.324-1.007l.97.434c1.186 3.485 2.379 6.966 3.56 10.451.193.572.347 1.156.537 1.728 1.334 4.003 2.672 8.006 4.015 12.005.21.625.474 1.231.719 1.844.099.249.22.485.329.727z"/>
  <path fill-rule="evenodd" clip-rule="evenodd" fill="#A9AA88" d="M62.598 107.085c.263.356.611.667.923.995.79.866 1.595 1.72 2.392 2.58l.198.213c-.208.638-.557 1.281-.666 1.95-.109.666.038 1.396.115 2.096-.965-.779-1.95-1.537-2.894-2.351-1.585-1.364-3.175-2.722-4.705-4.146-.758-.706-1.368-1.589-2.053-2.384.214-.319.441-.631.65-.955.569-.884 1.126-1.775 1.688-2.662.253-.398.515-.79.747-1.2.479-.848.91-1.722 1.368-2.583l.168-.318c.456.476.913.95 1.359 1.432 1.332 1.486 2.647 2.985 3.989 4.465.363.401.73.798 1.095 1.198l-.374 1.665z"/>
  <path fill-rule="evenodd" clip-rule="evenodd" fill="#B6B598" d="M62.476 112.873c-.077-.7-.224-1.43-.115-2.096.109-.67.458-1.312.666-1.95l.317.347c2.02 2.183 4.079 4.326 6.09 6.518.839.916 1.455 2.027 2.273 2.958.257.294.822.483 1.241.506.21.011.579-.416.624-.682.105-.63-.004-1.296-.056-1.944-.124-1.513-.281-3.023-.424-4.535-.031-.337-.059-.676-.09-1.042l.199.134c2.189 1.465 4.411 2.881 6.546 4.428 1.32.961 2.494 2.142 3.687 3.273.28.265.366.674.546 1.014-.178.16-.368.447-.533.434-.892-.07-1.785-.187-2.676-.299-2.334-.292-4.667-.589-7.001-.883l-11.294-1.181z"/>
  <path fill-rule="evenodd" clip-rule="evenodd" fill="#C2C1A7" d="M74.178 116.038c.031.366.059.705.09 1.042.143 1.512.3 3.022.424 4.535.052.648.161 1.314.056 1.944-.045.266-.414.693-.624.682-.419-.023-.984-.212-1.241-.506-.818-.931-1.434-2.042-2.273-2.958-2.011-2.192-4.07-4.335-6.09-6.518l-.317-.347.337-.23c4.597 1.226 9.194 2.452 13.638 3.356z"/>
  <path fill-rule="evenodd" clip-rule="evenodd" fill="#cecdb7" d="M74.178 116.038c-4.444-.904-9.041-2.13-13.638-3.356l.199-.213c1.162.847 2.324 1.696 3.49 2.539 2.36 1.71 4.722 3.416 7.091 5.113.834.603 1.681 1.184 2.537 1.751.378.25.81.426 1.218.64l-.424-4.535c-.031-.337-.059-.676-.09-1.042l-.383-.897z"/>
  <path fill-rule="evenodd" clip-rule="evenodd" fill="#DBDAC7" d="M74.561 116.935l.383.897c.143 1.512.3 3.022.424 4.535-.408-.214-.84-.39-1.218-.64-.856-.567-1.703-1.148-2.537-1.751-2.369-1.697-4.731-3.403-7.091-5.113-1.166-.843-2.328-1.692-3.49-2.539l2.392 2.58c1.859 2.011 3.681 4.053 5.572 6.03.633.661 1.408 1.181 2.118 1.768.527.435 1.053.872 1.583 1.303.74.594 1.485 1.181 2.227 1.772l-.363-8.842z"/>
  <path fill-rule="evenodd" clip-rule="evenodd" fill="#EBE9DC" d="M74.923 125.777l.363 8.842c-.421-.331-.853-.647-1.259-1-1.09-.949-2.145-1.938-3.273-2.839-1.429-1.142-2.913-2.208-4.369-3.313l.198-.134c.671.474 1.332.973 2.02 1.419 2.023 1.312 4.069 2.592 6.092 3.907.633.411 1.208.909 1.814 1.368l-.586-8.25z"/>
  <path fill-rule="evenodd" clip-rule="evenodd" fill="#F8F4EB" d="M74.337 134.027l.586 8.25c-.613-.459-1.198-.944-1.814-1.368-2.023-1.315-4.069-2.595-6.092-3.907-.688-.446-1.349-.945-2.02-1.419l-.198.134 1.135.944c2.113 1.764 4.229 3.525 6.342 5.29.49.41.967.834 1.494 1.18.198.13.5.104.757.154l-.19-9.258z"/>
  <path fill-rule="evenodd" clip-rule="evenodd" fill="#F8F2F3" d="M74.526 143.285l.19 9.258c-.257-.05-.559-.024-.757-.154-.527-.346-1.004-.77-1.494-1.18-2.113-1.765-4.229-3.526-6.342-5.29l-1.135-.944.207-.141c.969.8 1.949 1.586 2.909 2.397 2.098 1.775 4.168 3.587 6.291 5.325.443.362.957.64 1.438.959l-1.307-10.23z"/>
</svg>
