<?xml version="1.0" encoding="UTF-8"?>
<svg width="512" height="512" viewBox="0 0 512 512" fill="none" xmlns="http://www.w3.org/2000/svg">
  <rect width="512" height="512" rx="50" fill="#3178C6"/>
  <path d="M317.219 354.184V380.667C325.478 385.449 335.187 389.001 346.346 391.323C357.504 393.645 369.336 394.806 381.84 394.806C394.033 394.806 405.192 393.438 415.317 390.701C425.441 387.965 434.115 383.804 441.339 378.219C448.563 372.634 454.148 365.617 458.094 357.168C462.04 348.719 464.013 338.7 464.013 327.111C464.013 318.868 462.874 311.435 460.597 304.812C458.319 298.189 454.871 292.189 450.253 286.812C445.635 281.435 439.892 276.472 433.024 271.923C426.156 267.374 418.021 263.136 408.616 259.21C401.392 256.266 394.997 253.53 389.429 251.001C383.862 248.472 379.123 246.049 375.212 243.731C371.301 241.413 368.253 239.095 366.066 236.777C363.879 234.459 362.786 231.93 362.786 229.19C362.786 226.659 363.6 224.341 365.227 222.231C366.855 220.121 369.111 218.323 371.99 216.836C374.869 215.349 378.366 214.188 382.482 213.354C386.598 212.519 391.216 212.102 396.368 212.102C400.28 212.102 404.396 212.415 408.718 213.041C413.04 213.667 417.362 214.605 421.683 215.856C426.005 217.107 430.224 218.671 434.339 220.547C438.455 222.423 442.262 224.549 445.761 226.927V202.18C438.115 199.653 430.021 197.752 421.478 196.478C412.935 195.204 403.143 194.567 392.102 194.567C380.114 194.567 369.16 195.935 359.241 198.671C349.321 201.407 340.647 205.463 333.218 210.841C325.789 216.218 319.9 222.84 315.55 230.706C311.2 238.572 309.025 247.591 309.025 257.764C309.025 271.506 313.244 283.199 321.683 292.845C330.122 302.49 343.058 310.511 360.493 316.907C367.717 319.851 374.214 322.587 379.987 325.116C385.76 327.645 390.704 330.173 394.82 332.7C398.936 335.227 402.155 337.858 404.478 340.593C406.8 343.329 407.961 346.377 407.961 349.738C407.961 352.269 407.147 354.587 405.519 356.697C403.891 358.807 401.636 360.605 398.757 362.092C395.878 363.579 392.38 364.74 388.264 365.574C384.148 366.409 379.53 366.826 374.378 366.826C363.879 366.826 353.754 364.714 344.003 360.488C334.252 356.262 325.272 350.573 317.219 343.419V354.184ZM212.832 239.199H264.832V221.664H128V239.199H179.897V394.806H212.832V239.199Z" fill="white"/>
</svg>
