<?xml version="1.0" encoding="UTF-8"?>
<svg width="400" height="400" viewBox="0 0 400 400" xmlns="http://www.w3.org/2000/svg">
  <defs>
    <linearGradient id="blockGradient" x1="0%" y1="0%" x2="100%" y2="100%">
      <stop offset="0%" stop-color="#4F46E5" stop-opacity="0.6"/>
      <stop offset="100%" stop-color="#7E22CE" stop-opacity="0.2"/>
    </linearGradient>
    <filter id="glow" x="-20%" y="-20%" width="140%" height="140%">
      <feGaussianBlur stdDeviation="3" result="blur"/>
      <feComposite in="SourceGraphic" in2="blur" operator="over"/>
    </filter>
  </defs>
  
  <!-- Lignes de connexion -->
  <g stroke="#4F46E5" stroke-width="1" opacity="0.3">
    <line x1="100" y1="100" x2="200" y2="50" />
    <line x1="100" y1="100" x2="200" y2="150" />
    <line x1="100" y1="100" x2="50" y2="200" />
    <line x1="200" y1="50" x2="300" y2="100" />
    <line x1="200" y1="150" x2="300" y2="100" />
    <line x1="200" y1="150" x2="200" y2="250" />
    <line x1="300" y1="100" x2="350" y2="200" />
    <line x1="50" y1="200" x2="150" y2="250" />
    <line x1="150" y1="250" x2="200" y2="250" />
    <line x1="200" y1="250" x2="300" y2="300" />
    <line x1="300" y1="300" x2="350" y2="200" />
    <line x1="150" y1="250" x2="100" y2="350" />
    <line x1="100" y1="350" x2="200" y2="350" />
    <line x1="200" y1="350" x2="300" y2="300" />
  </g>
  
  <!-- Blocs -->
  <g>
    <!-- Bloc 1 -->
    <rect x="80" y="80" width="40" height="40" rx="5" ry="5" fill="url(#blockGradient)" stroke="#4F46E5" stroke-width="1" />
    <text x="100" y="105" font-family="monospace" font-size="10" fill="white" text-anchor="middle">#1</text>
    
    <!-- Bloc 2 -->
    <rect x="180" y="30" width="40" height="40" rx="5" ry="5" fill="url(#blockGradient)" stroke="#4F46E5" stroke-width="1" />
    <text x="200" y="55" font-family="monospace" font-size="10" fill="white" text-anchor="middle">#2</text>
    
    <!-- Bloc 3 -->
    <rect x="180" y="130" width="40" height="40" rx="5" ry="5" fill="url(#blockGradient)" stroke="#4F46E5" stroke-width="1" />
    <text x="200" y="155" font-family="monospace" font-size="10" fill="white" text-anchor="middle">#3</text>
    
    <!-- Bloc 4 -->
    <rect x="280" y="80" width="40" height="40" rx="5" ry="5" fill="url(#blockGradient)" stroke="#4F46E5" stroke-width="1" />
    <text x="300" y="105" font-family="monospace" font-size="10" fill="white" text-anchor="middle">#4</text>
    
    <!-- Bloc 5 -->
    <rect x="30" y="180" width="40" height="40" rx="5" ry="5" fill="url(#blockGradient)" stroke="#4F46E5" stroke-width="1" />
    <text x="50" y="205" font-family="monospace" font-size="10" fill="white" text-anchor="middle">#5</text>
    
    <!-- Bloc 6 -->
    <rect x="130" y="230" width="40" height="40" rx="5" ry="5" fill="url(#blockGradient)" stroke="#4F46E5" stroke-width="1" />
    <text x="150" y="255" font-family="monospace" font-size="10" fill="white" text-anchor="middle">#6</text>
    
    <!-- Bloc 7 -->
    <rect x="180" y="230" width="40" height="40" rx="5" ry="5" fill="url(#blockGradient)" stroke="#4F46E5" stroke-width="1" />
    <text x="200" y="255" font-family="monospace" font-size="10" fill="white" text-anchor="middle">#7</text>
    
    <!-- Bloc 8 -->
    <rect x="280" y="280" width="40" height="40" rx="5" ry="5" fill="url(#blockGradient)" stroke="#4F46E5" stroke-width="1" />
    <text x="300" y="305" font-family="monospace" font-size="10" fill="white" text-anchor="middle">#8</text>
    
    <!-- Bloc 9 -->
    <rect x="330" y="180" width="40" height="40" rx="5" ry="5" fill="url(#blockGradient)" stroke="#4F46E5" stroke-width="1" />
    <text x="350" y="205" font-family="monospace" font-size="10" fill="white" text-anchor="middle">#9</text>
    
    <!-- Bloc 10 -->
    <rect x="80" y="330" width="40" height="40" rx="5" ry="5" fill="url(#blockGradient)" stroke="#4F46E5" stroke-width="1" />
    <text x="100" y="355" font-family="monospace" font-size="10" fill="white" text-anchor="middle">#10</text>
    
    <!-- Bloc 11 -->
    <rect x="180" y="330" width="40" height="40" rx="5" ry="5" fill="url(#blockGradient)" stroke="#4F46E5" stroke-width="1" />
    <text x="200" y="355" font-family="monospace" font-size="10" fill="white" text-anchor="middle">#11</text>
  </g>
  
  <!-- Points lumineux -->
  <g filter="url(#glow)">
    <circle cx="100" cy="100" r="2" fill="#4F46E5" opacity="0.8" />
    <circle cx="200" cy="50" r="2" fill="#4F46E5" opacity="0.8" />
    <circle cx="200" cy="150" r="2" fill="#4F46E5" opacity="0.8" />
    <circle cx="300" cy="100" r="2" fill="#4F46E5" opacity="0.8" />
    <circle cx="50" cy="200" r="2" fill="#4F46E5" opacity="0.8" />
    <circle cx="150" cy="250" r="2" fill="#4F46E5" opacity="0.8" />
    <circle cx="200" cy="250" r="2" fill="#4F46E5" opacity="0.8" />
    <circle cx="300" cy="300" r="2" fill="#4F46E5" opacity="0.8" />
    <circle cx="350" cy="200" r="2" fill="#4F46E5" opacity="0.8" />
    <circle cx="100" cy="350" r="2" fill="#4F46E5" opacity="0.8" />
    <circle cx="200" cy="350" r="2" fill="#4F46E5" opacity="0.8" />
  </g>
</svg>
