<?xml version="1.0" encoding="UTF-8"?>
<svg width="400" height="400" viewBox="0 0 400 400" xmlns="http://www.w3.org/2000/svg">
  <defs>
    <linearGradient id="lineGradient" x1="0%" y1="0%" x2="100%" y2="0%">
      <stop offset="0%" stop-color="#10B981" stop-opacity="0.6"/>
      <stop offset="100%" stop-color="#10B981" stop-opacity="0.2"/>
    </linearGradient>
  </defs>
  
  <!-- Grille de fond -->
  <g stroke="#10B981" stroke-width="0.5" opacity="0.15">
    <g id="verticalLines">
      <line x1="0" y1="0" x2="0" y2="400" />
      <line x1="40" y1="0" x2="40" y2="400" />
      <line x1="80" y1="0" x2="80" y2="400" />
      <line x1="120" y1="0" x2="120" y2="400" />
      <line x1="160" y1="0" x2="160" y2="400" />
      <line x1="200" y1="0" x2="200" y2="400" />
      <line x1="240" y1="0" x2="240" y2="400" />
      <line x1="280" y1="0" x2="280" y2="400" />
      <line x1="320" y1="0" x2="320" y2="400" />
      <line x1="360" y1="0" x2="360" y2="400" />
      <line x1="400" y1="0" x2="400" y2="400" />
    </g>
    <g id="horizontalLines">
      <line x1="0" y1="0" x2="400" y2="0" />
      <line x1="0" y1="40" x2="400" y2="40" />
      <line x1="0" y1="80" x2="400" y2="80" />
      <line x1="0" y1="120" x2="400" y2="120" />
      <line x1="0" y1="160" x2="400" y2="160" />
      <line x1="0" y1="200" x2="400" y2="200" />
      <line x1="0" y1="240" x2="400" y2="240" />
      <line x1="0" y1="280" x2="400" y2="280" />
      <line x1="0" y1="320" x2="400" y2="320" />
      <line x1="0" y1="360" x2="400" y2="360" />
      <line x1="0" y1="400" x2="400" y2="400" />
    </g>
  </g>
  
  <!-- Graphique linéaire -->
  <polyline 
    points="0,300 40,280 80,290 120,250 160,230 200,180 240,210 280,150 320,120 360,90 400,70" 
    fill="none" 
    stroke="#10B981" 
    stroke-width="2"
    opacity="0.8"
  />
  
  <!-- Zone sous le graphique -->
  <path 
    d="M0,300 40,280 80,290 120,250 160,230 200,180 240,210 280,150 320,120 360,90 400,70 L400,400 L0,400 Z" 
    fill="url(#lineGradient)"
    opacity="0.3"
  />
  
  <!-- Points sur le graphique -->
  <g fill="#10B981">
    <circle cx="0" cy="300" r="3" />
    <circle cx="40" cy="280" r="3" />
    <circle cx="80" cy="290" r="3" />
    <circle cx="120" cy="250" r="3" />
    <circle cx="160" cy="230" r="3" />
    <circle cx="200" cy="180" r="3" />
    <circle cx="240" cy="210" r="3" />
    <circle cx="280" cy="150" r="3" />
    <circle cx="320" cy="120" r="3" />
    <circle cx="360" cy="90" r="3" />
    <circle cx="400" cy="70" r="3" />
  </g>
  
  <!-- Graphique en chandelier -->
  <g transform="translate(0, 50)">
    <!-- Chandelier 1 -->
    <line x1="20" y1="220" x2="20" y2="260" stroke="#10B981" stroke-width="1" />
    <rect x="15" y="230" width="10" height="20" fill="#10B981" opacity="0.7" />
    
    <!-- Chandelier 2 -->
    <line x1="60" y1="200" x2="60" y2="250" stroke="#E11D48" stroke-width="1" />
    <rect x="55" y="200" width="10" height="30" fill="#E11D48" opacity="0.7" />
    
    <!-- Chandelier 3 -->
    <line x1="100" y1="210" x2="100" y2="260" stroke="#10B981" stroke-width="1" />
    <rect x="95" y="210" width="10" height="40" fill="#10B981" opacity="0.7" />
    
    <!-- Chandelier 4 -->
    <line x1="140" y1="180" x2="140" y2="230" stroke="#10B981" stroke-width="1" />
    <rect x="135" y="190" width="10" height="30" fill="#10B981" opacity="0.7" />
    
    <!-- Chandelier 5 -->
    <line x1="180" y1="170" x2="180" y2="220" stroke="#E11D48" stroke-width="1" />
    <rect x="175" y="170" width="10" height="30" fill="#E11D48" opacity="0.7" />
    
    <!-- Chandelier 6 -->
    <line x1="220" y1="150" x2="220" y2="200" stroke="#10B981" stroke-width="1" />
    <rect x="215" y="150" width="10" height="35" fill="#10B981" opacity="0.7" />
    
    <!-- Chandelier 7 -->
    <line x1="260" y1="130" x2="260" y2="180" stroke="#E11D48" stroke-width="1" />
    <rect x="255" y="130" width="10" height="25" fill="#E11D48" opacity="0.7" />
    
    <!-- Chandelier 8 -->
    <line x1="300" y1="100" x2="300" y2="150" stroke="#10B981" stroke-width="1" />
    <rect x="295" y="110" width="10" height="30" fill="#10B981" opacity="0.7" />
    
    <!-- Chandelier 9 -->
    <line x1="340" y1="80" x2="340" y2="130" stroke="#10B981" stroke-width="1" />
    <rect x="335" y="80" width="10" height="40" fill="#10B981" opacity="0.7" />
    
    <!-- Chandelier 10 -->
    <line x1="380" y1="60" x2="380" y2="110" stroke="#E11D48" stroke-width="1" />
    <rect x="375" y="60" width="10" height="30" fill="#E11D48" opacity="0.7" />
  </g>
</svg>
